<?xml version="1.0" encoding="UTF-8" standalone="no"?>
<!-- Generator: Gravit.io -->
<svg xmlns="http://www.w3.org/2000/svg" xmlns:xlink="http://www.w3.org/1999/xlink" style="isolation:isolate" viewBox="0 0 48 48" width="48pt" height="48pt">
  <defs>
    <clipPath id="_clipPath_jVPpW8krKHwlOabM6CnZIkv8EI8ditLD">
      <rect width="48" height="48"/>
    </clipPath>
  </defs>
  <style>
    path { fill: black;}
    @media (prefers-color-scheme: dark) {
    path { fill: white;}
    }
  </style>
  <g clip-path="url(#_clipPath_jVPpW8krKHwlOabM6CnZIkv8EI8ditLD)">
    <path d=" M 45 5 L 45 9 L 45 9 L 45 9 L 42 9 L 42 5 L 45 5 L 45 5 L 45 5 L 45 5 Z  M 3 43 L 3 39 L 3 39 L 3 39 L 6 39 L 6 43 L 3 43 L 3 43 L 3 43 L 3 43 L 3 43 Z  M 45 11 L 45 15 L 42 15 L 42 11 L 45 11 L 45 11 L 45 11 L 45 11 L 45 11 L 45 11 Z  M 3 37 L 3 33 L 3 33 L 3 33 L 6 33 L 6 37 L 3 37 L 3 37 L 3 37 L 3 37 L 3 37 L 3 37 L 3 37 Z  M 3 31 L 3 27 L 3 27 L 3 27 L 6 27 L 6 31 L 3 31 L 3 31 L 3 31 L 3 31 L 3 31 L 3 31 L 3 31 L 3 31 L 3 31 Z  M 3 25 L 3 21 L 3 21 L 3 21 L 6 21 L 6 25 L 3 25 L 3 25 L 3 25 L 3 25 L 3 25 L 3 25 L 3 25 L 3 25 L 3 25 L 3 25 L 3 25 Z  M 3 19 L 3 15 L 3 15 L 3 15 L 6 15 L 6 19 L 3 19 L 3 19 L 3 19 L 3 19 L 3 19 L 3 19 L 3 19 L 3 19 L 3 19 L 3 19 L 3 19 L 3 19 L 3 19 Z  M 3 13 L 3 9 L 3 9 L 3 9 L 6 9 L 6 13 L 3 13 L 3 13 L 3 13 L 3 13 L 3 13 L 3 13 L 3 13 L 3 13 L 3 13 L 3 13 L 3 13 L 3 13 L 3 13 L 3 13 L 3 13 Z  M 3 7 L 3 3 L 6 3 L 6 7 L 3 7 L 3 7 L 3 7 L 3 7 L 3 7 L 3 7 L 3 7 L 3 7 L 3 7 L 3 7 L 3 7 L 3 7 L 3 7 L 3 7 L 3 7 L 3 7 L 3 7 Z  M 9 0 L 39 0 L 39 9 L 9 9 L 9 0 L 9 0 L 9 0 Z  M 9 11 L 39 11 L 39 36 L 9 36 L 9 11 L 9 11 Z  M 45 3 L 45 0 L 45 0 L 45 0 L 45 0 L 45 0 L 45 0 L 45 0 L 45 0 L 45 0 L 45 0 L 45 0 L 47 0 L 47 48 L 45 48 L 45 29 L 45 29 L 45 29 L 42 29 L 42 27 L 45 27 L 45 23 L 42 23 L 42 21 L 45 21 L 45 21 L 45 21 L 45 17 L 45 17 L 45 17 L 42 17 L 42 33 L 42 33 L 42 33 L 42 33 L 42 33 L 42 33 L 42 33 L 45 33 L 45 35 L 42 35 L 42 39 L 45 39 L 45 41 L 42 41 L 42 41 L 42 41 L 42 45 L 42 45 L 42 45 L 45 45 L 45 47 L 42 47 L 42 48 L 41 48 L 41 0 L 41 0 L 41 0 L 42 0 L 42 3 L 45 3 L 45 3 L 45 3 L 45 3 Z  M 3 45 L 3 48 L 1 48 L 1 0 L 1 0 L 1 0 L 1 0 L 3 0 L 3 1 L 3 1 L 3 1 L 6 1 L 6 0 L 6 0 L 6 0 L 7 0 L 7 48 L 6 48 L 6 45 L 3 45 L 3 45 L 3 45 L 3 45 L 3 45 Z  M 9 38 L 39 38 L 39 48 L 9 48 L 9 38 Z " fill-rule="evenodd"/>
  </g>
</svg>
