<svg version="1.1" id="Layer_1" xmlns="http://www.w3.org/2000/svg" xmlns:xlink="http://www.w3.org/1999/xlink" x="0px" y="0px"
	 width="100%" viewBox="0 0 1000 1000" enable-background="new 0 0 1000 1000" xml:space="preserve">
<path fill="#FDFDFD" opacity="1.000000" stroke="none" 
	d="
M813.000000,1.000000 
	C826.687561,1.000000 840.375122,1.000000 854.601807,1.464078 
	C855.146790,333.789520 855.152954,665.650879 855.152100,997.512207 
	C855.152100,998.674805 855.052856,999.837402 855.000000,1001.000000 
	C841.312439,1001.000000 827.624878,1001.000000 813.685059,1000.575500 
	C813.432739,931.192261 813.432739,862.233521 813.432739,793.013672 
	C605.049377,793.013672 396.987946,793.013672 188.503464,793.013672 
	C188.503464,794.698242 188.503464,796.154663 188.503464,797.611084 
	C188.503464,863.942627 188.500290,930.274170 188.524185,996.605713 
	C188.524719,998.070557 188.834488,999.535217 189.000000,1001.000000 
	C175.312439,1001.000000 161.624878,1001.000000 147.398209,1000.535889 
	C146.853180,668.210510 146.847092,336.349121 146.847870,4.487769 
	C146.847870,3.325179 146.947113,2.162589 147.000000,1.000000 
	C160.687561,1.000000 174.375122,1.000000 188.314972,1.424466 
	C188.567276,63.929832 188.567276,126.010735 188.567276,188.130493 
	C397.157593,188.130493 605.170288,188.130493 813.497070,188.130493 
	C813.497070,186.637070 813.497070,185.496216 813.497070,184.355362 
	C813.496887,124.534760 813.499756,64.714149 813.475647,4.893553 
	C813.475159,3.595638 813.165466,2.297848 813.000000,1.000000 
M813.497131,631.500366 
	C813.497131,497.898956 813.497131,364.297546 813.497131,230.452988 
	C604.981140,230.452988 396.951630,230.452988 188.823273,230.452988 
	C188.823273,404.079407 188.823273,577.418640 188.823273,750.732910 
	C397.214722,750.732910 605.276245,750.732910 813.497131,750.732910 
	C813.497131,711.145508 813.497131,671.822937 813.497131,631.500366 
z"/>
<path fill="#000000" opacity="1.000000" stroke="none" 
	d="
M189.468658,1001.000000 
	C188.834488,999.535217 188.524719,998.070557 188.524185,996.605713 
	C188.500290,930.274170 188.503464,863.942627 188.503464,797.611084 
	C188.503464,796.154663 188.503464,794.698242 188.503464,793.013672 
	C396.987946,793.013672 605.049377,793.013672 813.432739,793.013672 
	C813.432739,862.233521 813.432739,931.192261 813.216370,1000.575500 
	C605.312439,1001.000000 397.624878,1001.000000 189.468658,1001.000000 
z"/>
<path fill="#000000" opacity="1.000000" stroke="none" 
	d="
M812.531372,1.000000 
	C813.165466,2.297848 813.475159,3.595638 813.475647,4.893553 
	C813.499756,64.714149 813.496887,124.534760 813.497070,184.355362 
	C813.497070,185.496216 813.497070,186.637070 813.497070,188.130493 
	C605.170288,188.130493 397.157593,188.130493 188.567276,188.130493 
	C188.567276,126.010735 188.567276,63.929832 188.783630,1.424466 
	C396.687561,1.000000 604.375122,1.000000 812.531372,1.000000 
z"/>
<path fill="#030303" opacity="1.000000" stroke="none" 
	d="
M146.531464,1.000000 
	C146.947113,2.162589 146.847870,3.325179 146.847870,4.487769 
	C146.847092,336.349121 146.853180,668.210510 146.929550,1000.535889 
	C140.312363,1001.000000 133.624710,1001.000000 126.467606,1000.531372 
	C125.998138,979.645325 125.998138,959.228027 125.998138,938.872681 
	C104.939919,938.872681 84.398438,938.872681 63.511414,938.872681 
	C63.511414,955.035889 63.474262,970.827026 63.533836,986.617859 
	C63.551926,991.412415 63.837139,996.205994 64.000000,1001.000000 
	C50.312439,1001.000000 36.624878,1001.000000 22.398090,1000.541809 
	C21.853230,668.218323 21.847420,336.352966 21.848475,4.487648 
	C21.848476,3.325099 21.947319,2.162549 22.000000,1.000000 
	C35.354229,1.000000 48.708454,1.000000 62.747593,1.424279 
	C63.432503,8.440386 63.432503,15.032211 63.432503,21.599415 
	C84.693329,21.599415 105.124168,21.599415 126.000000,21.599415 
	C126.000000,14.577840 126.000000,7.788920 126.000000,1.000000 
	C132.687637,1.000000 139.375290,1.000000 146.531464,1.000000 
M63.502075,196.646698 
	C63.502075,221.561661 63.502075,246.476639 63.502075,271.560242 
	C84.590691,271.560242 105.118080,271.560242 125.669785,271.560242 
	C125.669785,243.777496 125.669785,216.276382 125.669785,188.867279 
	C104.807930,188.867279 84.278397,188.867279 63.501865,188.867279 
	C63.501865,191.395309 63.501865,193.544662 63.502075,196.646698 
M119.386192,771.837891 
	C121.490685,771.837891 123.595177,771.837891 125.804237,771.837891 
	C125.804237,743.798401 125.804237,716.363281 125.804237,688.805420 
	C105.035629,688.805420 84.463921,688.805420 63.772579,688.805420 
	C63.772579,716.536438 63.772579,743.955505 63.772579,771.838135 
	C82.167549,771.838135 100.288292,771.838135 119.386192,771.837891 
M118.219666,438.494873 
	C100.129524,438.494873 82.039383,438.494873 63.864578,438.494873 
	C63.864578,466.540588 63.864578,494.055878 63.864578,521.470215 
	C84.767288,521.470215 105.296173,521.470215 125.800507,521.470215 
	C125.800507,493.681671 125.800507,466.263000 125.800507,438.495758 
	C123.455368,438.495758 121.307541,438.495758 118.219666,438.494873 
M125.998009,127.499466 
	C125.998009,106.223732 125.998009,84.947990 125.998009,63.912937 
	C104.863861,63.912937 84.295952,63.912937 63.903206,63.912937 
	C63.903206,91.709885 63.903206,119.100365 63.903206,146.599609 
	C84.715248,146.599609 105.133057,146.599609 125.998009,146.599609 
	C125.998009,140.413177 125.998009,134.456161 125.998009,127.499466 
M125.998009,877.499512 
	C125.998009,856.219788 125.998009,834.940063 125.998009,813.921570 
	C104.876381,813.921570 84.306145,813.921570 63.896156,813.921570 
	C63.896156,841.717102 63.896156,869.108215 63.896156,896.596375 
	C84.705597,896.596375 105.124397,896.596375 125.998009,896.596375 
	C125.998009,890.412659 125.998009,884.455933 125.998009,877.499512 
M67.647034,646.836853 
	C86.932915,646.836853 106.218796,646.836853 125.734863,646.836853 
	C125.734863,618.829407 125.734863,591.262146 125.734863,563.905151 
	C104.896660,563.905151 84.323723,563.905151 63.508183,563.905151 
	C63.508183,590.772400 63.472195,617.251221 63.641869,643.728760 
	C63.648548,644.770691 65.618042,645.800049 67.647034,646.836853 
M125.481979,313.661346 
	C104.903526,313.661346 84.325073,313.661346 63.880619,313.661346 
	C63.880619,341.680511 63.880619,369.074524 63.880619,396.611328 
	C84.679367,396.611328 105.099625,396.611328 125.957443,396.611328 
	C125.957443,369.103119 125.957443,341.822174 125.481979,313.661346 
z"/>
<path fill="#030303" opacity="1.000000" stroke="none" 
	d="
M855.468506,1001.000000 
	C855.052856,999.837402 855.152100,998.674805 855.152100,997.512207 
	C855.152954,665.650879 855.146790,333.789520 855.070435,1.464078 
	C861.687622,1.000000 868.375305,1.000000 875.530518,1.468578 
	C875.998047,8.518490 875.998047,15.099824 875.998047,21.559513 
	C897.192932,21.559513 917.611084,21.559513 939.000000,21.559513 
	C939.000000,14.524776 939.000000,7.762388 939.000000,1.000000 
	C952.354248,1.000000 965.708435,1.000000 979.601929,1.458194 
	C980.146729,333.781708 980.152466,665.647034 980.151550,997.512329 
	C980.151550,998.674866 980.052734,999.837463 980.000000,1001.000000 
	C966.312439,1001.000000 952.624878,1001.000000 938.681519,1000.574036 
	C938.425781,979.731384 938.425781,959.314636 938.425781,938.803345 
	C917.331970,938.803345 896.788086,938.803345 876.000000,938.803345 
	C876.000000,959.738464 876.000000,980.369202 876.000000,1001.000000 
	C869.312378,1001.000000 862.624695,1001.000000 855.468506,1001.000000 
M938.497803,205.503769 
	C938.497803,199.911377 938.497803,194.318985 938.497803,188.706345 
	C917.301270,188.706345 896.852295,188.706345 876.335999,188.706345 
	C876.335999,216.476776 876.335999,244.023315 876.335999,271.603516 
	C897.099609,271.603516 917.526428,271.603516 938.497742,271.603516 
	C938.497742,249.748276 938.497742,228.125443 938.497803,205.503769 
M876.000061,736.500000 
	C876.000061,748.121643 876.000061,759.743225 876.000061,771.520996 
	C896.990051,771.520996 917.528503,771.520996 938.235107,771.520996 
	C938.235107,743.793884 938.235107,716.384583 938.235107,688.765747 
	C917.391113,688.765747 896.817688,688.765747 876.000061,688.765747 
	C876.000061,704.524048 876.000061,720.012024 876.000061,736.500000 
M876.000061,502.499481 
	C876.000061,508.902466 876.000061,515.305420 876.000061,521.575806 
	C897.194763,521.575806 917.590393,521.575806 938.153198,521.575806 
	C938.153198,493.812256 938.153198,466.314301 938.153198,438.816589 
	C917.273376,438.816589 896.748779,438.816589 876.000061,438.816589 
	C876.000061,459.925140 876.000061,480.712433 876.000061,502.499481 
M876.001892,864.500000 
	C876.001892,875.237976 876.001892,885.975891 876.001892,896.518311 
	C897.257019,896.518311 917.685059,896.518311 938.198364,896.518311 
	C938.198364,868.792419 938.198364,841.382385 938.198364,813.795898 
	C917.365906,813.795898 896.829712,813.795898 876.001892,813.795898 
	C876.001892,830.547729 876.001892,847.023865 876.001892,864.500000 
M876.001953,570.529175 
	C876.001953,595.810059 876.001953,621.091003 876.001953,646.508789 
	C897.015808,646.508789 917.562317,646.508789 938.197266,646.508789 
	C938.197266,618.772644 938.197266,591.367188 938.197266,563.809204 
	C917.364624,563.809204 896.829773,563.809204 876.001831,563.809204 
	C876.001831,565.907166 876.001831,567.721741 876.001953,570.529175 
M938.488586,357.500305 
	C938.488586,342.922424 938.488586,328.344543 938.488586,313.685791 
	C917.282654,313.685791 896.844727,313.685791 876.323975,313.685791 
	C876.323975,341.421387 876.323975,368.979004 876.323975,396.590088 
	C897.079712,396.590088 917.507324,396.590088 938.488647,396.590088 
	C938.488647,383.732269 938.488647,371.116302 938.488586,357.500305 
M919.499390,146.832855 
	C925.627869,146.832855 931.756348,146.832855 938.125977,146.832855 
	C938.125977,118.853699 938.125977,91.336052 938.125977,63.667549 
	C917.322021,63.667549 896.882202,63.667549 876.303589,63.667549 
	C876.303589,91.385597 876.303589,118.943291 876.303589,146.832840 
	C890.568237,146.832840 904.533875,146.832840 919.499390,146.832855 
z"/>
<path fill="#FBFBFB" opacity="1.000000" stroke="none" 
	d="
M21.537338,1.000000 
	C21.947319,2.162549 21.848476,3.325099 21.848475,4.487648 
	C21.847420,336.352966 21.853230,668.218323 21.929432,1000.541809 
	C15.002858,1001.000000 8.005717,1001.000000 1.041435,1001.000000 
	C1.041435,667.666687 1.041435,334.333344 1.041435,1.000000 
	C7.746805,1.000000 14.410742,1.000000 21.537338,1.000000 
z"/>
<path fill="#FBFBFB" opacity="1.000000" stroke="none" 
	d="
M980.462646,1001.000000 
	C980.052734,999.837463 980.151550,998.674866 980.151550,997.512329 
	C980.152466,665.647034 980.146729,333.781708 980.070557,1.458194 
	C986.997131,1.000000 993.994324,1.000000 1000.958557,1.000000 
	C1000.958557,334.333344 1000.958557,667.666687 1000.958557,1001.000000 
	C994.253174,1001.000000 987.589233,1001.000000 980.462646,1001.000000 
z"/>
<path fill="#FDFDFD" opacity="1.000000" stroke="none" 
	d="
M64.468658,1001.000000 
	C63.837139,996.205994 63.551926,991.412415 63.533836,986.617859 
	C63.474262,970.827026 63.511414,955.035889 63.511414,938.872681 
	C84.398438,938.872681 104.939919,938.872681 125.998138,938.872681 
	C125.998138,959.228027 125.998138,979.645325 125.999069,1000.531372 
	C105.645775,1001.000000 85.291542,1001.000000 64.468658,1001.000000 
z"/>
<path fill="#FDFDFD" opacity="1.000000" stroke="none" 
	d="
M876.468628,1001.000000 
	C876.000000,980.369202 876.000000,959.738464 876.000000,938.803345 
	C896.788086,938.803345 917.331970,938.803345 938.425781,938.803345 
	C938.425781,959.314636 938.425781,979.731384 938.212891,1000.574036 
	C917.645752,1001.000000 897.291565,1001.000000 876.468628,1001.000000 
z"/>
<path fill="#FBFBFB" opacity="1.000000" stroke="none" 
	d="
M125.531342,1.000000 
	C126.000000,7.788920 126.000000,14.577840 126.000000,21.599415 
	C105.124168,21.599415 84.693329,21.599415 63.432503,21.599415 
	C63.432503,15.032211 63.432503,8.440386 63.216251,1.424279 
	C83.687561,1.000000 104.375122,1.000000 125.531342,1.000000 
z"/>
<path fill="#FBFBFB" opacity="1.000000" stroke="none" 
	d="
M938.531372,1.000000 
	C939.000000,7.762388 939.000000,14.524776 939.000000,21.559513 
	C917.611084,21.559513 897.192932,21.559513 875.998047,21.559513 
	C875.998047,15.099824 875.998047,8.518490 875.999023,1.468578 
	C896.687561,1.000000 917.375122,1.000000 938.531372,1.000000 
z"/>
<path fill="#010101" opacity="1.000000" stroke="none" 
	d="
M813.497131,632.000366 
	C813.497131,671.822937 813.497131,711.145508 813.497131,750.732910 
	C605.276245,750.732910 397.214722,750.732910 188.823273,750.732910 
	C188.823273,577.418640 188.823273,404.079407 188.823273,230.452988 
	C396.951630,230.452988 604.981140,230.452988 813.497131,230.452988 
	C813.497131,364.297546 813.497131,497.898956 813.497131,632.000366 
z"/>
<path fill="#FCFCFC" opacity="1.000000" stroke="none" 
	d="
M63.501968,196.170364 
	C63.501865,193.544662 63.501865,191.395309 63.501865,188.867279 
	C84.278397,188.867279 104.807930,188.867279 125.669785,188.867279 
	C125.669785,216.276382 125.669785,243.777496 125.669785,271.560242 
	C105.118080,271.560242 84.590691,271.560242 63.502075,271.560242 
	C63.502075,246.476639 63.502075,221.561661 63.501968,196.170364 
z"/>
<path fill="#FCFCFC" opacity="1.000000" stroke="none" 
	d="
M118.897614,771.838013 
	C100.288292,771.838135 82.167549,771.838135 63.772579,771.838135 
	C63.772579,743.955505 63.772579,716.536438 63.772579,688.805420 
	C84.463921,688.805420 105.035629,688.805420 125.804237,688.805420 
	C125.804237,716.363281 125.804237,743.798401 125.804237,771.837891 
	C123.595177,771.837891 121.490685,771.837891 118.897614,771.838013 
z"/>
<path fill="#FCFCFC" opacity="1.000000" stroke="none" 
	d="
M118.689682,438.495300 
	C121.307541,438.495758 123.455368,438.495758 125.800507,438.495758 
	C125.800507,466.263000 125.800507,493.681671 125.800507,521.470215 
	C105.296173,521.470215 84.767288,521.470215 63.864578,521.470215 
	C63.864578,494.055878 63.864578,466.540588 63.864578,438.494873 
	C82.039383,438.494873 100.129524,438.494873 118.689682,438.495300 
z"/>
<path fill="#FDFDFD" opacity="1.000000" stroke="none" 
	d="
M125.998009,127.999306 
	C125.998009,134.456161 125.998009,140.413177 125.998009,146.599609 
	C105.133057,146.599609 84.715248,146.599609 63.903206,146.599609 
	C63.903206,119.100365 63.903206,91.709885 63.903206,63.912937 
	C84.295952,63.912937 104.863861,63.912937 125.998009,63.912937 
	C125.998009,84.947990 125.998009,106.223732 125.998009,127.999306 
z"/>
<path fill="#FDFDFD" opacity="1.000000" stroke="none" 
	d="
M125.998009,877.999390 
	C125.998009,884.455933 125.998009,890.412659 125.998009,896.596375 
	C105.124397,896.596375 84.705597,896.596375 63.896156,896.596375 
	C63.896156,869.108215 63.896156,841.717102 63.896156,813.921570 
	C84.306145,813.921570 104.876381,813.921570 125.998009,813.921570 
	C125.998009,834.940063 125.998009,856.219788 125.998009,877.999390 
z"/>
<path fill="#FDFDFD" opacity="1.000000" stroke="none" 
	d="
M67.159996,646.836060 
	C65.618042,645.800049 63.648548,644.770691 63.641869,643.728760 
	C63.472195,617.251221 63.508183,590.772400 63.508183,563.905151 
	C84.323723,563.905151 104.896660,563.905151 125.734863,563.905151 
	C125.734863,591.262146 125.734863,618.829407 125.734863,646.836853 
	C106.218796,646.836853 86.932915,646.836853 67.159996,646.836060 
z"/>
<path fill="#FDFDFD" opacity="1.000000" stroke="none" 
	d="
M125.719711,314.101257 
	C125.957443,341.822174 125.957443,369.103119 125.957443,396.611328 
	C105.099625,396.611328 84.679367,396.611328 63.880619,396.611328 
	C63.880619,369.074524 63.880619,341.680511 63.880619,313.661346 
	C84.325073,313.661346 104.903526,313.661346 125.719711,314.101257 
z"/>
<path fill="#FCFCFC" opacity="1.000000" stroke="none" 
	d="
M938.497803,206.003189 
	C938.497742,228.125443 938.497742,249.748276 938.497742,271.603516 
	C917.526428,271.603516 897.099609,271.603516 876.335999,271.603516 
	C876.335999,244.023315 876.335999,216.476776 876.335999,188.706345 
	C896.852295,188.706345 917.301270,188.706345 938.497803,188.706345 
	C938.497803,194.318985 938.497803,199.911377 938.497803,206.003189 
z"/>
<path fill="#FCFCFC" opacity="1.000000" stroke="none" 
	d="
M876.000061,736.000000 
	C876.000061,720.012024 876.000061,704.524048 876.000061,688.765747 
	C896.817688,688.765747 917.391113,688.765747 938.235107,688.765747 
	C938.235107,716.384583 938.235107,743.793884 938.235107,771.520996 
	C917.528503,771.520996 896.990051,771.520996 876.000061,771.520996 
	C876.000061,759.743225 876.000061,748.121643 876.000061,736.000000 
z"/>
<path fill="#FCFCFC" opacity="1.000000" stroke="none" 
	d="
M876.000061,501.999634 
	C876.000061,480.712433 876.000061,459.925140 876.000061,438.816589 
	C896.748779,438.816589 917.273376,438.816589 938.153198,438.816589 
	C938.153198,466.314301 938.153198,493.812256 938.153198,521.575806 
	C917.590393,521.575806 897.194763,521.575806 876.000061,521.575806 
	C876.000061,515.305420 876.000061,508.902466 876.000061,501.999634 
z"/>
<path fill="#FDFDFD" opacity="1.000000" stroke="none" 
	d="
M876.001892,864.000000 
	C876.001892,847.023865 876.001892,830.547729 876.001892,813.795898 
	C896.829712,813.795898 917.365906,813.795898 938.198364,813.795898 
	C938.198364,841.382385 938.198364,868.792419 938.198364,896.518311 
	C917.685059,896.518311 897.257019,896.518311 876.001892,896.518311 
	C876.001892,885.975891 876.001892,875.237976 876.001892,864.000000 
z"/>
<path fill="#FDFDFD" opacity="1.000000" stroke="none" 
	d="
M876.001892,570.032715 
	C876.001831,567.721741 876.001831,565.907166 876.001831,563.809204 
	C896.829773,563.809204 917.364624,563.809204 938.197266,563.809204 
	C938.197266,591.367188 938.197266,618.772644 938.197266,646.508789 
	C917.562317,646.508789 897.015808,646.508789 876.001953,646.508789 
	C876.001953,621.091003 876.001953,595.810059 876.001892,570.032715 
z"/>
<path fill="#FDFDFD" opacity="1.000000" stroke="none" 
	d="
M938.488647,358.000305 
	C938.488647,371.116302 938.488647,383.732269 938.488647,396.590088 
	C917.507324,396.590088 897.079712,396.590088 876.323975,396.590088 
	C876.323975,368.979004 876.323975,341.421387 876.323975,313.685791 
	C896.844727,313.685791 917.282654,313.685791 938.488586,313.685791 
	C938.488586,328.344543 938.488586,342.922424 938.488647,358.000305 
z"/>
<path fill="#FDFDFD" opacity="1.000000" stroke="none" 
	d="
M918.999451,146.832855 
	C904.533875,146.832840 890.568237,146.832840 876.303589,146.832840 
	C876.303589,118.943291 876.303589,91.385597 876.303589,63.667549 
	C896.882202,63.667549 917.322021,63.667549 938.125977,63.667549 
	C938.125977,91.336052 938.125977,118.853699 938.125977,146.832855 
	C931.756348,146.832855 925.627869,146.832855 918.999451,146.832855 
z"/>
</svg>